<!-- Generated by IcoMoon.io -->
<svg version="1.1" xmlns="http://www.w3.org/2000/svg" width="1229" height="1024" viewBox="0 0 1229 1024">
<g id="icomoon-ignore">
</g>
<path fill="#000" d="M586.271 21.479c15.176 7.537 32.241 29.181 43.694 41.979 98.278 109.784 149.827 249.611 140.708 396.798-8.827 142.434-79.165 268.909-184.745 362.379-19.994-13.665-38.287-33.116-54.282-51.2-89.689-101.437-138.85-243.958-130.285-379.167 8.83-139.403 80.090-278.89 184.91-370.79z"></path>
<path fill="#000" d="M1004.58 220.833c0.292 0.493 0.625 0.967 0.876 1.482 5.591 11.389 7.209 29.46 8.627 42.102 7.388 65.741 1.275 131.654-21.847 193.899-57.764 155.506-191.283 269.979-338.908 337.84-1.741-0.020-0.573 0.118-3.226-1.428 9.016-14.756 21.601-27.945 32.010-41.815 15.918-21.647 30.346-44.349 43.172-67.937 45.225-83.215 66.852-174.729 66.78-269.106-0.015-26.804-0.63-53.579-8.387-79.448 13.844-15.365 30.807-28.316 47.273-40.777 53.069-40.161 106.542-68.11 173.629-74.811z"></path>
<path fill="#000" d="M166.168 221.484c7.967 0.307 16.005 1.341 23.885 2.54 60.642 9.227 113.702 41.52 161.075 78.893 13.222 10.431 27.687 21.308 37.643 35.015-25.188 129.406 8.218 265.093 75.131 377.011 10.686 17.787 22.231 35.041 34.593 51.717 5.903 7.946 12.929 15.155 18.221 23.496l-1.874 2.432c-110.328-47.181-213.68-130.673-280.168-230.467-69.752-104.701-92.816-217.484-68.506-340.636z"></path>
<path fill="#000" d="M1112.489 510.266c17.592-2.1 57.016-4.318 71.762 5.072 0.742 2.217 0.963 2.437 1.039 5.13 0.297 10.317-6.446 25.769-9.943 35.395-23.398 66.437-63.457 125.763-116.337 172.293-103.521 91.53-237.706 124.37-373.222 115.656-25.6-2.673-51.983-4.454-76.59-12.298 113.541-34.924 221.548-106.271 299.802-195.369 19.236-21.908 33.336-47.34 52.055-69.366 35.523-41.815 99.932-52.869 151.434-56.513z"></path>
<path fill="#000" d="M27.805 513.731c52.911-6.238 124.707 2.478 168.289 35.42 25.911 19.589 41.526 55.956 62.94 80.717 66.967 77.548 150.84 138.696 245.159 178.724 20.085 8.596 40.759 17.572 61.997 22.799l-42.45 7.091c-123.622 17.792-251.724-4.296-357.497-73.068-72.030-46.848-122.746-111.084-152.563-191.206-4.378-11.75-10.93-24.504-13.168-36.746-1.307-7.153-0.156-11.863 4.021-17.925 6.65-4.895 15.294-4.833 23.272-5.806z"></path>
<path fill="#000" d="M592.701 839.772c21.504 7.644 43.146 13.768 65.705 17.428 38.866 6.303 84.024 4.46 118.943 24.704 25.784 14.956 52.193 49.976 59.479 79.012 1.336 5.33 0.952 5.765-1.782 10.184-26.988 9.723-53.197 7.409-80.051-1.388-64.691-21.156-130.632-68.301-162.294-129.94z"></path>
<path fill="#000" d="M580.526 839.931c1.362-0.118 2.673 0.594 3.994 0.968-0.067 0.614-0.056 1.249-0.205 1.864-3.318 13.768-56.576 69.903-68.874 79.626-42.492 33.556-105.587 60.196-160.408 53.642-1.466-0.317-3.502-0.712-4.837-1.326-2.952-1.367-4.822-2.458-5.6-5.647-2.078-8.576 2.797-18.519 6.695-25.969 12.558-24.008 32.224-52.173 56.861-65.147 30.368-15.964 75.209-15.908 108.958-21.908 21.622-3.84 42.455-9.708 63.416-16.102z"></path>
</svg>
